PathFileType	3	(X/Y/Z)	F:\ViconData\AntennenMessung\Messung1\Session1\ID03.trc
DataRate	CameraRate	NumFrames	NumMarkers	Units	OrigDataRate	OrigDataStartFrame	OrigNumFrames
120.0	120.0	4	70	mm	120.0	581	1160	
Frame#	Time	Ashort			Along			Atop			A4			Bshort			Blong			Btop			B4			Cshort			Clong			Ctop			C4			Dshort			Dlong			Dtop			D4			Eshort			Elong			Etop			E4			Fshort			Flong			Ftop			F4			Gshort			Glong			Gtop			G4			Hshort			Hlong			Htop			H4			I1			I2			I3			I4			I5			WandAshort			WandAlong			WandAtop			WandA4			WandA15			WandBshort			WandB4			WandB5			WandBtop			WandBlong			WandCshort			WandClong			WandCtop			WandC4			WandC5			Acenter			Aantenna			Bcenter			Bantenna			Ccenter			Cantenna			Dcenter			Dantenna			Ecenter			Eantenna			Fcenter			Fantenna			Gcenter			Gantenna			Hcenter			Hantenna			Icenter			Iantenna			
		X1	Y1	Z1	X2	Y2	Z2	X3	Y3	Z3	X4	Y4	Z4	X5	Y5	Z5	X6	Y6	Z6	X7	Y7	Z7	X8	Y8	Z8	X9	Y9	Z9	X10	Y10	Z10	X11	Y11	Z11	X12	Y12	Z12	X13	Y13	Z13	X14	Y14	Z14	X15	Y15	Z15	X16	Y16	Z16	X17	Y17	Z17	X18	Y18	Z18	X19	Y19	Z19	X20	Y20	Z20	X21	Y21	Z21	X22	Y22	Z22	X23	Y23	Z23	X24	Y24	Z24	X25	Y25	Z25	X26	Y26	Z26	X27	Y27	Z27	X28	Y28	Z28	X29	Y29	Z29	X30	Y30	Z30	X31	Y31	Z31	X32	Y32	Z32	X33	Y33	Z33	X34	Y34	Z34	X35	Y35	Z35	X36	Y36	Z36	X37	Y37	Z37	X38	Y38	Z38	X39	Y39	Z39	X40	Y40	Z40	X41	Y41	Z41	X42	Y42	Z42	X43	Y43	Z43	X44	Y44	Z44	X45	Y45	Z45	X46	Y46	Z46	X47	Y47	Z47	X48	Y48	Z48	X49	Y49	Z49	X50	Y50	Z50	X51	Y51	Z51	X52	Y52	Z52	X53	Y53	Z53	X54	Y54	Z54	X55	Y55	Z55	X56	Y56	Z56	X57	Y57	Z57	X58	Y58	Z58	X59	Y59	Z59	X60	Y60	Z60	X61	Y61	Z61	X62	Y62	Z62	X63	Y63	Z63	X64	Y64	Z64	X65	Y65	Z65	X66	Y66	Z66	X67	Y67	Z67	X68	Y68	Z68	X69	Y69	Z69	X70	Y70	Z70	
581	4.8333333	-1038.2638	214.47713	-1644.2142	-1109.3173	203.50513	-1599.599	-1063.55	172.64626	-1625.5942	-1054.1888	262.0766	-1634.9664	-1352.9899	234.96786	1003.8275	-1281.4033	227.21143	1052.3436	-1323.0919	194.17284	1020.8156	-1284.7153	287.83044	1052.7795	813.81354	187.6834	1209.5042	892.31671	178.42212	1179.0934	844.30756	145.53419	1198.1941	860.48663	292.4816	1167.3627	1115.7579	209.4628	-1401.5847	1056.2382	194.07318	-1460.2166	1095.0217	162.14502	-1423.9019	1069.8916	238.59285	-1425.9628	-1204.4893	1685.9382	-1563.3268	-1129.1241	1688.3514	-1606.6348	-1173.1073	1724.3706	-1581.9719	-1133.5726	1581.0768	-1603.5607	-1239.762	1699.2812	1119.3046	-1309.5302	1698.9888	1071.8622	-1270.3458	1736.1232	1096.6638	-1246.6171	1592.6892	1108.8536	988.78284	1664.2213	1162.2593	955.62317	1702.2428	1181.0093	922.6402	1662.0007	1214.799	939.79492	1659.3094	1159.8763	999.22424	1668.5977	-1579.5284	1058.7662	1669.993	-1518.6725	1025.0784	1708.0259	-1551.1519	1059.3003	1672.2257	-1585.653	-552.44592	1664.1748	-294.54358	-557.26178	1665.0077	-210.2623	-555.25378	1701.3866	-257.2186	-586.67944	1662.5165	-259.75055	-507.22183	1666.6281	-254.66772																																														-1068.894	209.74722	-1624.9812	-1074.4536	248.34366	-1624.3433	-1321.8342	231.59213	1024.9424	-1320.5322	270.33551	1029.2151	848.04742	183.6447	1196.2423	851.85144	222.40794	1194.2572	1088.7828	202.48801	-1428.1575	1082.8544	240.8221	-1432.2013	-1171.943	1686.9802	-1582.0292	-1170.7291	1647.9991	-1582.0891	-1271.097	1699.1499	1097.9966	-1271.8888	1660.1832	1099.4011	953.36578	1704.8312	1182.2856	972.71436	1731.8022	1161.8115	1026.4985	1669.2368	-1551.6521	1027.9254	1630.2662	-1552.1547	-554.60162	1664.5476	-256.81723	-553.91125	1625.556	-256.39243
582	4.8416667	-1038.2789	214.45403	-1644.2062	-1109.3112	203.46674	-1599.5748	-1063.5737	172.63696	-1625.6136	-1054.1896	262.0795	-1634.9662	-1353.0378	235.05341	1003.8032	-1281.3207	227.06529	1052.3097	-1323.1138	194.19949	1020.7486	-1284.6082	287.92093	1052.7368	813.81519	187.70258	1209.575	892.31586	178.49446	1179.2021	844.52515	145.2522	1198.2816	860.36163	292.36212	1167.3483	1115.8059	209.7507	-1401.7096	1056.2344	194.0235	-1460.1869	1095.0261	162.21147	-1423.8571	1069.9034	238.58733	-1425.9186	-1204.5342	1686.0015	-1563.1996	-1129.1041	1688.2177	-1606.082	-1173.1167	1724.3727	-1581.976	-1133.5448	1581.0582	-1603.5248	-1239.7244	1699.2218	1119.2855	-1309.4847	1698.9232	1071.8351	-1270.397	1736.1996	1096.6863	-1244.9796	1593.6437	1106.8097	988.82245	1664.2408	1162.2515	955.82715	1702.368	1181.1649	922.46063	1662.0918	1214.8127	939.79681	1659.3384	1159.8688	999.21698	1668.5604	-1579.5065	1058.901	1670.1677	-1518.6423	1025.0863	1708.0251	-1551.1597	1059.3115	1672.2277	-1585.6527	-552.54834	1664.1455	-294.5329	-557.44067	1665.2338	-210.09857	-555.29718	1701.3513	-257.22565	-586.67303	1662.517	-259.73795	-507.21622	1666.6262	-254.67041																																														-1068.9016	209.71727	-1624.965	-1074.4478	248.315	-1624.2898	-1321.7861	231.57248	1024.9404	-1320.4103	270.30533	1029.2847	848.24597	183.66385	1196.2532	852.0011	222.42863	1194.2062	1088.7213	202.60022	-1428.2965	1082.7411	240.90829	-1432.5073	-1171.8927	1686.9603	-1581.7565	-1170.6174	1647.9819	-1581.5278	-1271.0955	1699.0875	1097.947	-1271.8292	1660.1169	1099.271	953.53217	1705.0198	1182.4803	973.05267	1731.9893	1162.1677	1026.5803	1669.2972	-1551.6021	1028.0837	1630.3287	-1552.0471	-554.73932	1664.6328	-256.72003	-554.14691	1625.641	-256.18314
583	4.85	-1038.3003	214.5033	-1644.2301	-1109.3051	203.44772	-1599.5566	-1063.6576	172.61124	-1625.5769	-1054.1865	262.06635	-1634.9485	-1353.1149	234.84099	1003.9103	-1281.3466	227.29482	1052.1313	-1323.1633	194.1243	1020.8196	-1284.698	287.85614	1052.7587	813.77112	187.65283	1209.5212	892.22968	178.40942	1179.234	844.55389	145.24802	1198.266	860.54492	292.4068	1167.2712	1115.7949	209.7475	-1401.7251	1056.2582	194.12888	-1460.2369	1094.9832	162.11081	-1423.8749	1069.8586	238.57814	-1425.9561	-1204.4766	1685.949	-1563.338	-1129.1102	1688.202	-1606.0793	-1173.1034	1724.3737	-1581.9663	-1133.5076	1581.0403	-1603.494	-1239.7212	1699.2532	1119.3011	-1309.458	1698.8646	1071.8181	-1270.3571	1736.1611	1096.6781	-1244.9763	1593.788	1106.7648	988.80237	1664.2317	1162.2526	955.78967	1702.3126	1181.1316	922.61786	1662.1058	1214.8273	939.71301	1659.2985	1159.8904	999.19257	1668.5999	-1579.5232	1058.7666	1669.9938	-1518.6748	1025.0775	1708.0182	-1551.1454	1059.3137	1672.1339	-1585.4521	-552.44006	1664.1655	-294.54498	-557.25732	1665.0095	-210.2753	-555.25592	1701.3917	-257.22513	-586.67065	1662.5093	-259.73972	-507.22433	1666.6196	-254.66672																																														-1069.0138	209.72112	-1624.9062	-1074.5842	248.31496	-1624.209	-1321.9393	231.56299	1024.8569	-1320.6725	270.31772	1029.0361	848.27405	183.58794	1196.2021	852.03522	222.35004	1194.1155	1088.7258	202.64629	-1428.328	1082.8108	240.96457	-1432.5378	-1171.8976	1686.9227	-1581.814	-1170.6423	1647.9432	-1581.6556	-1271.0361	1699.0787	1097.9791	-1271.7499	1660.1091	1099.3464	953.50861	1704.9436	1182.436	972.9538	1731.9093	1162.0463	1026.4908	1669.2384	-1551.6409	1027.9113	1630.2675	-1552.1388	-554.59668	1664.5432	-256.81839	-553.89905	1625.5519	-256.388
584	4.8583333	-1038.3049	214.55925	-1644.2823	-1109.319	203.50574	-1599.574	-1063.5854	173.07831	-1625.7761	-1054.188	262.09152	-1634.9497	-1353.0706	234.86012	1003.8621	-1281.3656	227.07497	1052.3782	-1323.0966	194.18948	1020.7759	-1284.7126	287.84875	1052.807	813.86005	187.67975	1209.5363	892.37909	178.5965	1179.1238	844.54474	145.21465	1198.3099	860.51416	292.55203	1167.2874	1115.8015	209.76518	-1401.7263	1056.266	194.12967	-1460.2194	1094.9617	162.14247	-1423.8666	1069.8539	238.59645	-1425.9523	-1204.479	1685.9441	-1563.3263	-1129.1049	1688.2026	-1606.09	-1173.1085	1724.3666	-1581.9686	-1133.5433	1581.0702	-1603.5585	-1239.7163	1699.2185	1119.2859	-1309.4331	1698.8346	1071.812	-1270.3466	1736.1298	1096.6642	-1244.8585	1594.1992	1106.9166	988.83521	1664.2385	1162.2938	955.7442	1702.2876	1181.1143	922.14386	1662.2025	1214.7988	939.76831	1659.3557	1159.9224	999.20007	1668.5822	-1579.5381	1058.9102	1670.1654	-1518.6429	1025.0643	1708.0106	-1551.1447	1059.3002	1672.1711	-1585.5507	-552.44452	1664.1748	-294.54391	-557.26062	1665.0061	-210.26801	-555.23767	1701.3834	-257.22467	-586.67712	1662.5201	-259.73578	-507.22272	1666.6205	-254.66957																																														-1068.8472	209.80528	-1625.0537	-1074.3772	248.40376	-1624.2946	-1321.8822	231.47394	1024.9644	-1320.6208	270.20987	1029.3158	848.19495	183.70781	1196.2373	851.87146	222.47797	1194.15	1088.7157	202.65178	-1428.3378	1082.8079	240.96902	-1432.567	-1171.8973	1686.9203	-1581.8114	-1170.6365	1647.941	-1581.6477	-1271.0276	1699.046	1097.9642	-1271.7433	1660.0765	1099.3306	953.22394	1705.1853	1182.5475	972.74982	1732.1891	1162.2858	1026.5751	1669.308	-1551.6196	1028.0961	1630.3406	-1552.098	-554.60004	1664.5469	-256.82483	-553.92517	1625.5549	-256.40161
